# AST/ASF file generated using VICON BodyLanguage
# -----------------------------------------------
:version 1.10
:name VICON
:units
  mass 1.0
  length 0.45
  angle deg
:documentation
   .ast/.asf automatically generated from VICON data using
   VICON BodyBuilder and BodyLanguage model FoxedUp or BRILLIANT.MOD
:root
   order TX TY TZ RX RY RZ
   axis XYZ
   position 0 0 0  
   orientation 0 0 0 
:bonedata
  begin
     id 1 
     name lhipjoint
     direction 0.62366 -0.717238 0.310833 
     length 2.53602 
     axis 0 0 0  XYZ
  end
  begin
     id 2 
     name lfemur
     direction 0.34202 -0.939693 0  
     length 7.40817  
     axis 0 0 20  XYZ
    dof rx ry rz
    limits (-160.0 20.0)
           (-70.0 70.0)
           (-60.0 70.0)
  end
  begin
     id 3 
     name ltibia
     direction 0.34202 -0.939693 0   
     length 7.7045   
     axis 0 0 20   XYZ
    dof rx
    limits (-10.0 170.0)
  end
  begin
     id 4 
     name lfoot
     direction 0.0673888 -0.185149 0.980397   
     length 2.09456   
     axis -90 7.62852e-016 20   XYZ
    dof rx rz
    limits (-45.0 90.0)
           (-70.0 20.0)
  end
  begin
     id 5 
     name ltoes
     direction 1.53575e-011 -4.21994e-011 1   
     length 1.05543   
     axis -90 7.62852e-016 20   XYZ
    dof rx
    limits (-90.0 20.0)
  end
  begin
     id 6 
     name rhipjoint
     direction -0.489018 -0.800347 0.346851   
     length 2.27268  
     axis 0 0 0  XYZ 
  end
  begin
     id 7 
     name rfemur
     direction -0.34202 -0.939693 0   
     length 7.55487   
     axis 0 0 -20   XYZ
    dof rx ry rz
    limits (-160.0 20.0)
           (-70.0 70.0)
           (-70.0 60.0)
  end
  begin
     id 8 
     name rtibia
     direction -0.34202 -0.939693 0   
     length 7.78969   
     axis 0 0 -20   XYZ
    dof rx
    limits (-10.0 170.0)
 end
 begin
     id 9 
     name rfoot
     direction -0.0859318 -0.236096 0.967923   
     length 2.19143  
     axis -90 -7.62852e-016 -20   XYZ
    dof rx rz
    limits (-45.0 90.0)
           (-20.0 70.0)
  end
  begin
     id 10 
     name rtoes
     direction -1.53538e-011 -4.21989e-011 1   
     length 1.09845   
     axis -90 -7.62852e-016 -20   XYZ
    dof rx
    limits (-90.0 20.0)
  end
  begin
     id 11 
     name lowerback
     direction -0.00762546 0.998978 -0.0445553   
     length 1.98161   
     axis 0 0 0   XYZ
    dof rx ry rz
    limits (-20.0 45.0)
           (-30.0 30.0)
           (-30.0 30.0)
  end
  begin
     id 12 
     name upperback
     direction 0.0422361 0.998867 -0.0219156   
     length 1.97558   
     axis 0 0 0   XYZ
    dof rx ry rz
    limits (-20.0 45.0)
           (-30.0 30.0)
           (-30.0 30.0)
  end
  begin
     id 13 
     name thorax
     direction 0.0442465 0.999021 7.47603e-005   
     length 1.97799   
     axis 0 0 0   XYZ
    dof rx ry rz
    limits (-20.0 45.0)
           (-30.0 30.0)
           (-30.0 30.0)
  end
  begin
     id 14 
     name lowerneck
     direction 0.00312169 0.984641 0.174564   
     length 1.78995   
     axis 0 0 0   XYZ
    dof rx ry rz
    limits (-20.0 45.0)
           (-30.0 30.0)
           (-30.0 30.0)
  end
  begin
     id 15 
     name upperneck
     direction -0.0383028 0.985255 -0.166749   
     length 1.83053   
     axis 0 0 0   XYZ
    dof rx ry rz
    limits (-20.0 45.0)
           (-30.0 30.0)
           (-30.0 30.0)
  end
  begin
     id 16
     name head
     direction -0.0129546 0.997059 -0.0755386  
     length 1.84088  
     axis 0 0 0   XYZ
    dof rx ry rz
    limits (-20.0 45.0)
           (-30.0 30.0)
           (-30.0 30.0)
  end
  begin
     id 17 
     name lclavicle
     direction 0.912857 0.370519 -0.171488  
     length 3.51279  
     axis 0 0 0   XYZ
    dof ry rz
    limits (-20.0 10.0)
           (0.0 20.0)
  end
  begin
     id 18 
     name lhumerus
     direction 1 -4.48962e-011 3.64361e-027   
     length 4.95663   
     axis 180 -30 -90   XYZ
    dof rx ry rz
    limits (-60.0 90.0)
           (-90.0 90.0)
           (-90.0 90.0)
  end
  begin
     id 19
     name lradius
     direction 1 -4.48974e-011 5.97202e-027   
     length 3.38177   
     axis 180 -30 -90   XYZ
    dof rx
    limits (-10.0 170.0)
  end
  begin
     id 20
     name lwrist
     direction 1 -4.4896e-011 9.83288e-027   
     length 1.69088   
     axis -9.31221e-015 90 90   XYZ
    dof ry
    limits (-180.0 0.0)
 end
  begin
     id 21 
     name lhand
     direction 1 -4.4902e-011 1.96551e-026   
     length 0.662909   
     axis -1.25475e-014 90 90   XYZ
    dof rx rz
    limits (-90.0 90.0)
           (-45.0 45.0)
  end
  begin
     id 22 
     name lfingers
     direction 1 -4.48971e-011 3.93277e-026   
     length 0.534454   
     axis -2.50945e-014 90 90   XYZ
    dof rx
    limits (0.0 90.0)
  end
  begin
     id 23
     name lthumb
     direction 0.707107 -6.34933e-011 0.707107   
     length 0.767373   
     axis -90 45 -4.80359e-014   XYZ
    dof rx rz
    limits (-45.0 45.0)
           (-45.0 45.0)
  end
  begin
     id 24 
     name rclavicle
     direction -0.900919 0.395364 -0.178976   
     length 3.40627  
     axis 0 0 0   XYZ 
    dof ry rz
    limits (-10.0 20.0)
           (-20.0 0.0)
  end
  begin
     id 25 
     name rhumerus
     direction -1 -4.48969e-011 1.03875e-027  
     length 5.08365   
     axis 180 30 90   XYZ
    dof rx ry rz
    limits (-90.0 60.0)
           (-90.0 90.0)
           (-90.0 90.0)
  end
  begin
     id 26 
     name rradius
     direction -1 -4.48951e-011 5.02733e-027   
     length 3.35984   
     axis 180 30 90   XYZ
    dof rx
    limits (-10.0 170.0)
  end
  begin
     id 27 
     name rwrist
     direction -1 -4.49011e-011 9.82828e-027   
     length 1.67992   
     axis -9.31221e-015 -90 -90   XYZ
    dof ry
    limits (-180.0 0.0)
  end
  begin
     id 28
     name rhand
     direction -1 -4.48894e-011 1.96774e-026   
     length 0.820764   
     axis -1.25475e-014 -90 -90   XYZ
    dof rx rz
    limits (-90.0 90.0)
           (-45.0 45.0)
  end
  begin
     id 29
     name rfingers
     direction -1 -4.49095e-011 3.92833e-026   
     length 0.661721   
     axis -2.50945e-014 -90 -90   XYZ
    dof rx
    limits (0.0 90.0)
  end
  begin
     id 30
     name rthumb
     direction -0.707107 -6.34881e-011 0.707107   
     length 0.950103   
     axis -90 -45 4.80359e-014   XYZ
    dof rx rz
    limits (-45.0 45.0)
           (-45.0 45.0)
  end
:hierarchy
  begin
    root lhipjoint rhipjoint lowerback
    lhipjoint lfemur
    lfemur ltibia
    ltibia lfoot
    lfoot ltoes
    rhipjoint rfemur
    rfemur rtibia
    rtibia rfoot
    rfoot rtoes
    lowerback upperback
    upperback thorax
    thorax lowerneck lclavicle rclavicle
    lowerneck upperneck
    upperneck head
    lclavicle lhumerus
    lhumerus lradius
    lradius lwrist
    lwrist lhand lthumb
    lhand lfingers
    rclavicle rhumerus
    rhumerus rradius
    rradius rwrist
    rwrist rhand rthumb
    rhand rfingers
  end

#!OML:ASF I:\golf\golf\golf 2\Subject 1\2002-09-07\Subject1.ASF
:FULLY-SPECIFIED
:DEGREES
48
root -6.50329 17.7588 0.168783 -66.8117 86.43 -84.2463
lowerback 2.73591 2.02494 -0.996454
upperback 3.33755 2.74531 4.04911
thorax 1.65558 1.35198 4.69992
lowerneck -16.1917 -1.5691 1.8868
upperneck 39.5652 0.393248 -3.82195
head 17.1744 0.456474 -1.8274
rclavicle 2.38542e-015 1.43125e-014
rhumerus -5.71969 -2.84012 -101.308
rradius 20.7121
rwrist -29.4965
rhand -13.2482 -5.83985
rfingers 7.12502
rthumb 12.854 -35.4241
lclavicle 2.38542e-015 1.43125e-014
lhumerus -8.61974 -41.3604 110.122
lradius 22.635
lwrist 37.9023
lhand -13.5339 72.3595
lfingers 7.12502
lthumb -167.422 78.0391
rfemur -31.3202 -3.02091 12.5972
rtibia 29.4428
rfoot -8.27651 -11.7828
rtoes -7.87637
lfemur -31.1273 9.78688 -10.3253
ltibia 31.7775
lfoot -12.317 0.0949234
ltoes -23.5374
49
root -6.50305 17.7592 0.168063 -66.5987 86.4926 -84.0305
lowerback 2.71498 2.03664 -1.0536
upperback 3.35036 2.75941 4.03909
thorax 1.67724 1.35735 4.7228
lowerneck -16.1929 -1.56772 1.85354
upperneck 39.5722 0.398362 -3.79486
head 17.179 0.457907 -1.80817
rclavicle -3.57812e-015 4.77083e-014
rhumerus -5.71228 -3.05985 -101.305
rradius 20.6045
rwrist -29.4086
rhand -13.0884 -5.76421
rfingers 7.12502
rthumb 13.008 -35.3387
lclavicle -3.57812e-015 4.77083e-014
lhumerus -8.34399 -41.0071 109.926
lradius 22.4078
lwrist 38.0307
lhand -13.0937 72.357
lfingers 7.12502
lthumb -166.997 78.0682
rfemur -31.3117 -3.01036 12.5146
rtibia 29.4365
rfoot -8.21444 -11.793
rtoes -8.32895
lfemur -31.1298 9.76147 -10.3982
ltibia 31.7854
lfoot -12.3405 0.105169
ltoes -23.4538
50
root -6.50278 17.76 0.167545 -66.8106 86.5443 -84.2164
lowerback 2.7354 2.05543 -1.0766
upperback 3.36191 2.78417 4.02717
thorax 1.67505 1.36929 4.72237
lowerneck -16.1665 -1.57465 1.86106
upperneck 39.5295 0.386606 -3.80684
head 17.1479 0.452013 -1.81577
rclavicle -3.61788e-014 -2.3059e-014
rhumerus -5.73174 -3.44763 -101.296
rradius 20.607
rwrist -29.4538
rhand -12.4742 -5.74929
rfingers 7.12502
rthumb 13.6 -35.2851
lclavicle -3.61788e-014 -2.3059e-014
lhumerus -8.13431 -40.8439 109.749
lradius 22.3105
lwrist 38.4153
lhand -12.7977 72.4035
lfingers 7.12502
lthumb -166.712 78.0401
rfemur -31.2704 -3.02197 12.456
rtibia 29.4314
rfoot -8.22357 -11.7885
rtoes -8.3585
lfemur -31.1078 9.71863 -10.4429
ltibia 31.7854
lfoot -12.3421 0.0973222
ltoes -23.3274
51
root -6.50294 17.7612 0.166277 -67.3075 86.5304 -84.6853
lowerback 2.77406 2.08857 -0.999624
upperback 3.36196 2.83026 4.02041
thorax 1.6531 1.39455 4.66914
lowerneck -16.1429 -1.61559 1.82663
upperneck 39.4996 0.322295 -3.77715
head 17.1221 0.424826 -1.80689
rclavicle 1.70955e-014 7.95139e-016
rhumerus -5.80827 -3.68111 -101.244
rradius 20.7337
rwrist -29.8501
rhand -11.8848 -5.70417
rfingers 7.12502
rthumb 14.168 -35.201
lclavicle 1.70955e-014 7.95139e-016
lhumerus -8.03587 -41.1016 109.603
lradius 22.3176
lwrist 38.9733
lhand -12.7586 72.6322
lfingers 7.12502
lthumb -166.674 77.8139
rfemur -31.232 -3.06992 12.4883
rtibia 29.4283
rfoot -8.23516 -11.7364
rtoes -8.10178
lfemur -31.0818 9.71245 -10.4175
ltibia 31.781
lfoot -12.3291 0.0579739
ltoes -23.0896
52
root -6.50353 17.7603 0.163761 -67.5744 86.5228 -84.9542
lowerback 2.77938 2.09999 -0.939578
upperback 3.35501 2.84657 4.01359
thorax 1.64455 1.40422 4.62727
lowerneck -16.1561 -1.66126 1.77207
upperneck 39.5207 0.262113 -3.74695
head 17.1345 0.397202 -1.79505
rclavicle 3.97569e-015 1.82882e-014
rhumerus -5.94762 -3.42045 -101.228
rradius 20.8834
rwrist -30.4103
rhand -11.9984 -5.50459
rfingers 7.12502
rthumb 14.0586 -35.0091
lclavicle 3.97569e-015 1.82882e-014
lhumerus -7.94249 -41.3438 109.435
lradius 22.3029
lwrist 39.4486
lhand -12.6864 72.7776
lfingers 7.12502
lthumb -166.604 77.6731
rfemur -31.2371 -3.08721 12.4931
rtibia 29.4302
rfoot -8.29802 -11.727
rtoes -7.48341
lfemur -31.0959 9.74972 -10.4275
ltibia 31.7823
lfoot -12.3128 0.0342251
ltoes -23.1312
53
root -6.50371 17.7597 0.161699 -67.6651 86.5432 -85.048
lowerback 2.7726 2.09846 -0.968417
upperback 3.35392 2.84427 4.03201
thorax 1.64525 1.40243 4.66311
lowerneck -16.1585 -1.66559 1.74092
upperneck 39.52 0.278871 -3.77465
head 17.1358 0.395711 -1.7988
rclavicle 3.10104e-014 3.18055e-014
rhumerus -6.21451 -2.61036 -101.203
rradius 21.2561
rwrist -31.6282
rhand -12.4856 -5.46492
rfingers 7.12502
rthumb 13.589 -35.0014
lclavicle 3.10104e-014 3.18055e-014
lhumerus -7.84076 -41.3921 109.307
lradius 22.2541
lwrist 39.8126
lhand -12.5575 72.7955
lfingers 7.12502
lthumb -166.48 77.6634
rfemur -31.246 -3.06564 12.4497
rtibia 29.4499
rfoot -8.34046 -11.8063
rtoes -7.42208
lfemur -31.1119 9.77136 -10.4697
ltibia 31.7893
lfoot -12.3274 0.0108752
ltoes -23.0552
54
root -6.50399 17.7595 0.158641 -68.4596 86.5775 -85.8301
lowerback 2.7866 2.08119 -1.02284
upperback 3.35844 2.82145 4.0822
thorax 1.63933 1.39001 4.74633
lowerneck -16.1384 -1.63897 1.71617
upperneck 39.491 0.355079 -3.84132
head 17.1188 0.413554 -1.80935
rclavicle 2.22639e-014 1.59028e-014
rhumerus -6.48107 -1.72402 -101.157
rradius 21.6712
rwrist -33.1254
rhand -12.8972 -5.35192
rfingers 7.12502
rthumb 13.1923 -34.9145
lclavicle 2.22639e-014 1.59028e-014
lhumerus -7.69622 -41.2165 109.248
lradius 22.1028
lwrist 39.7948
lhand -12.3214 72.682
lfingers 7.12502
lthumb -166.253 77.7921
rfemur -31.2316 -3.11415 12.4164
rtibia 29.4848
rfoot -8.33759 -11.8616
rtoes -7.65247
lfemur -31.119 9.7195 -10.4997
ltibia 31.8021
lfoot -12.3421 -0.0199576
ltoes -22.5854
55
root -6.50351 17.757 0.154955 -69.8191 86.6524 -87.1736
lowerback 2.79551 2.04966 -1.07135
upperback 3.37203 2.77916 4.10896
thorax 1.64882 1.36763 4.80272
lowerneck -16.1262 -1.61036 1.69408
upperneck 39.4497 0.419495 -3.88207
head 17.0964 0.429752 -1.81077
rclavicle 2.94201e-014 2.3059e-014
rhumerus -6.60421 -1.27708 -101.17
rradius 21.8949
rwrist -34.0391
rhand -13.2124 -5.1596
rfingers 7.12502
rthumb 12.8884 -34.7416
lclavicle 2.94201e-014 2.3059e-014
lhumerus -7.51387 -41.074 109.183
lradius 21.9268
lwrist 39.6928
lhand -12.1122 72.4653
lfingers 7.12502
lthumb -166.051 78.0226
rfemur -31.2065 -3.22785 12.3542
rtibia 29.5154
rfoot -8.3119 -11.8216
rtoes -7.68692
lfemur -31.1382 9.66567 -10.5784
ltibia 31.8236
lfoot -12.3441 -0.0486841
ltoes -22.6234
56
root -6.50222 17.7554 0.152361 -70.7018 86.7238 -88.0474
lowerback 2.77817 2.04037 -1.11648
upperback 3.38609 2.76607 4.12702
thorax 1.67147 1.35966 4.84863
lowerneck -16.0918 -1.59546 1.65887
upperneck 39.3989 0.457352 -3.89759
head 17.0618 0.437005 -1.80275
rclavicle 2.90226e-014 -2.70347e-014
rhumerus -6.67204 -1.21099 -101.178
rradius 22.0344
rwrist -34.4738
rhand -13.2681 -5.08005
rfingers 7.12502
rthumb 12.8348 -34.6655
lclavicle 2.90226e-014 -2.70347e-014
lhumerus -7.45464 -41.4386 109.151
lradius 21.9655
lwrist 40.0451
lhand -12.0546 72.3674
lfingers 7.12502
lthumb -165.996 78.1244
rfemur -31.1949 -3.26393 12.2721
rtibia 29.5441
rfoot -8.31076 -11.778
rtoes -7.78464
lfemur -31.1574 9.66285 -10.6714
ltibia 31.8459
lfoot -12.3676 -0.114633
ltoes -23.0569
57
root -6.50151 17.7567 0.150521 -70.5485 86.7473 -87.8892
lowerback 2.76405 2.05872 -1.15363
upperback 3.39848 2.79024 4.1549
thorax 1.68706 1.37067 4.89933
lowerneck -16.0548 -1.59174 1.64109
upperneck 39.3566 0.490283 -3.95266
head 17.0311 0.440044 -1.81673
rclavicle -1.66979e-014 1.90833e-014
rhumerus -6.71209 -1.32021 -101.157
rradius 22.1158
rwrist -34.6354
rhand -12.8922 -4.89
rfingers 7.12502
rthumb 13.1971 -34.4523
lclavicle -1.66979e-014 1.90833e-014
lhumerus -7.43918 -41.9172 109.156
lradius 22.0551
lwrist 40.507
lhand -12.0681 72.6377
lfingers 7.12502
lthumb -166.009 77.8532
rfemur -31.202 -3.23416 12.2301
rtibia 29.5763
rfoot -8.36852 -11.8091
rtoes -7.89033
lfemur -31.157 9.68136 -10.7099
ltibia 31.8623
lfoot -12.3804 -0.189988
ltoes -22.9624
58
root -6.5013 17.7565 0.149991 -70.1004 86.7796 -87.4445
lowerback 2.75252 2.08152 -1.20103
upperback 3.42552 2.81958 4.15112
thorax 1.7168 1.38368 4.923
lowerneck -16.1172 -1.59298 1.66459
upperneck 39.3617 0.498014 -4.00091
head 17.0504 0.439235 -1.84229
rclavicle 1.94809e-014 3.81667e-014
rhumerus -6.70652 -1.37793 -101.18
rradius 22.1893
rwrist -34.7822
rhand -12.3868 -4.59898
rfingers 7.12502
rthumb 13.6842 -34.1291
lclavicle 1.94809e-014 3.81667e-014
lhumerus -7.38752 -42.474 109.102
lradius 22.1277
lwrist 40.9668
lhand -12.1939 73.1233
lfingers 7.12502
lthumb -166.13 77.3592
rfemur -31.2196 -3.22822 12.1872
rtibia 29.5995
rfoot -8.36751 -11.8572
rtoes -7.80004
lfemur -31.1621 9.69632 -10.7548
ltibia 31.8707
lfoot -12.3988 -0.217917
ltoes -22.6949
59
root -6.50145 17.7543 0.150199 -70.3901 86.8196 -87.7299
lowerback 2.79148 2.10908 -1.268
upperback 3.4248 2.85589 4.1572
thorax 1.68753 1.40098 4.96483
lowerneck -16.1812 -1.62457 1.68161
upperneck 39.4132 0.455565 -4.01687
head 17.0929 0.423658 -1.86227
rclavicle -1.19271e-014 2.54444e-014
rhumerus -6.78719 -1.09978 -101.198
rradius 22.4132
rwrist -35.5138
rhand -12.279 -4.54186
rfingers 7.12502
rthumb 13.7881 -34.0649
lclavicle -1.19271e-014 2.54444e-014
lhumerus -7.49843 -43.3175 109.135
lradius 22.3143
lwrist 41.465
lhand -12.3604 73.3539
lfingers 7.12502
lthumb -166.29 77.1177
rfemur -31.2131 -3.19155 12.1266
rtibia 29.6133
rfoot -8.33278 -11.9194
rtoes -7.59006
lfemur -31.1741 9.75699 -10.8236
ltibia 31.8715
lfoot -12.3892 -0.241205
ltoes -22.8627
